# xmcd
#
# Track frame offsets:
#	150
#	5655
#	18841
#	30621
#	33013
#	45170
#	57347
#	61757
#	75005
#	89543
#	93889
#	105758
#	119055
#	123489
#	136028
#	146270
#	149803
#	160574
#
# Disc length: 2300 seconds
#
# Revision: 0
# Processed by: cddbd v1.5.2PL0 Copyright (c) Steve Scherf et al.
# Submitted via: EasyCDDAExtractor 16.0.9.1
#
DISCID=d108fa12
DTITLE=Blaszczyk, Malajkat - JESIEN Teatr Malucha Cztery Pory Roku
DYEAR=2012
DGENRE=Country
TTITLE0=Wiatr i pory roku
TTITLE1=Wiatr zartownis
TTITLE2=Jesienne Wedrowki
TTITLE3=Co moze wiatr
TTITLE4=Deszcz
TTITLE5=Kropelke deszczu zlap
TTITLE6=Rozmowa o chmurach
TTITLE7=Burza
TTITLE8=Kalosze
TTITLE9=Prosba drzew
TTITLE10=Liscie z zeszytow
TTITLE11=Kasztanowe jeze
TTITLE12=Jesienne zapachy
TTITLE13=Jesien i konfitury
TTITLE14=Jesienne sikoreczki
TTITLE15=Wiatr i mis
TTITLE16=Jesien niedzwiedzia
TTITLE17=Listopadowe sny
EXTD=
EXTT0=
EXTT1=
EXTT2=
EXTT3=
EXTT4=
EXTT5=
EXTT6=
EXTT7=
EXTT8=
EXTT9=
EXTT10=
EXTT11=
EXTT12=
EXTT13=
EXTT14=
EXTT15=
EXTT16=
EXTT17=
PLAYORDER=
